<mxfile host="Electron" agent="Mozilla/5.0 (X11; Linux x86_64) AppleWebKit/537.36 (KHTML, like Gecko) draw.io/26.0.16 Chrome/132.0.6834.210 Electron/34.3.2 Safari/537.36" version="26.0.16" pages="10">
  <diagram name="1_1" id="raGk_D8FTLXwgUmbc4jt">
    <mxGraphModel dx="576" dy="342" grid="1" gridSize="10" guides="1" tooltips="1" connect="1" arrows="1" fold="1" page="1" pageScale="1" pageWidth="380" pageHeight="160" math="0" shadow="0">
      <root>
        <mxCell id="0" />
        <mxCell id="1" parent="0" />
        <mxCell id="jTd84X1G22GfpIwI3Wmg-1" style="edgeStyle=orthogonalEdgeStyle;rounded=0;orthogonalLoop=1;jettySize=auto;html=1;exitX=1;exitY=0.5;exitDx=0;exitDy=0;entryX=0;entryY=0.5;entryDx=0;entryDy=0;fillColor=#f5f5f5;strokeColor=#666666;strokeWidth=2;" parent="1" source="zCmTgFsGxIaxcytd8qIg-1" target="zCmTgFsGxIaxcytd8qIg-2" edge="1">
          <mxGeometry relative="1" as="geometry" />
        </mxCell>
        <mxCell id="jTd84X1G22GfpIwI3Wmg-9" value="&lt;font style=&quot;font-size: 10px;&quot;&gt;3 !in visits&lt;/font&gt;" style="edgeStyle=orthogonalEdgeStyle;rounded=0;orthogonalLoop=1;jettySize=auto;html=1;entryX=0.5;entryY=0;entryDx=0;entryDy=0;fillColor=#dae8fc;strokeColor=#6c8ebf;exitX=0.5;exitY=0;exitDx=0;exitDy=0;" parent="1" source="zCmTgFsGxIaxcytd8qIg-1" target="jTd84X1G22GfpIwI3Wmg-5" edge="1">
          <mxGeometry relative="1" as="geometry">
            <Array as="points">
              <mxPoint x="60" y="40" />
              <mxPoint x="320" y="40" />
            </Array>
            <mxPoint x="80" y="50" as="sourcePoint" />
          </mxGeometry>
        </mxCell>
        <mxCell id="zCmTgFsGxIaxcytd8qIg-1" value="3" style="text;html=1;align=center;verticalAlign=middle;whiteSpace=wrap;rounded=0;fillColor=#dae8fc;strokeColor=#6c8ebf;fontSize=14;fontColor=#333333;" parent="1" vertex="1">
          <mxGeometry x="40" y="60" width="40" height="40" as="geometry" />
        </mxCell>
        <mxCell id="jTd84X1G22GfpIwI3Wmg-2" style="edgeStyle=orthogonalEdgeStyle;rounded=0;orthogonalLoop=1;jettySize=auto;html=1;exitX=1;exitY=0.5;exitDx=0;exitDy=0;entryX=0;entryY=0.5;entryDx=0;entryDy=0;fillColor=#f5f5f5;strokeColor=#666666;strokeWidth=2;" parent="1" source="zCmTgFsGxIaxcytd8qIg-2" target="zCmTgFsGxIaxcytd8qIg-3" edge="1">
          <mxGeometry relative="1" as="geometry">
            <mxPoint x="180" y="80" as="sourcePoint" />
          </mxGeometry>
        </mxCell>
        <mxCell id="zCmTgFsGxIaxcytd8qIg-2" value="2" style="text;html=1;align=center;verticalAlign=middle;whiteSpace=wrap;rounded=0;fillColor=#f5f5f5;strokeColor=#666666;fontSize=14;fontColor=#333333;" parent="1" vertex="1">
          <mxGeometry x="100" y="60" width="40" height="40" as="geometry" />
        </mxCell>
        <mxCell id="jTd84X1G22GfpIwI3Wmg-3" style="edgeStyle=orthogonalEdgeStyle;rounded=0;orthogonalLoop=1;jettySize=auto;html=1;exitX=1;exitY=0.5;exitDx=0;exitDy=0;entryX=0;entryY=0.5;entryDx=0;entryDy=0;fillColor=#f5f5f5;strokeColor=#666666;strokeWidth=2;" parent="1" source="zCmTgFsGxIaxcytd8qIg-3" target="zCmTgFsGxIaxcytd8qIg-4" edge="1">
          <mxGeometry relative="1" as="geometry" />
        </mxCell>
        <mxCell id="zCmTgFsGxIaxcytd8qIg-3" value="0" style="text;html=1;align=center;verticalAlign=middle;whiteSpace=wrap;rounded=0;fillColor=#f5f5f5;strokeColor=#666666;fontSize=14;fontColor=#333333;" parent="1" vertex="1">
          <mxGeometry x="160" y="60" width="40" height="40" as="geometry" />
        </mxCell>
        <mxCell id="jTd84X1G22GfpIwI3Wmg-8" style="edgeStyle=orthogonalEdgeStyle;rounded=0;orthogonalLoop=1;jettySize=auto;html=1;exitX=0.5;exitY=1;exitDx=0;exitDy=0;entryX=0.5;entryY=1;entryDx=0;entryDy=0;strokeWidth=2;fillColor=#f5f5f5;strokeColor=#666666;" parent="1" source="zCmTgFsGxIaxcytd8qIg-4" target="zCmTgFsGxIaxcytd8qIg-2" edge="1">
          <mxGeometry relative="1" as="geometry" />
        </mxCell>
        <mxCell id="zCmTgFsGxIaxcytd8qIg-4" value="4" style="text;html=1;align=center;verticalAlign=middle;whiteSpace=wrap;rounded=0;fillColor=#f5f5f5;strokeColor=#666666;fontSize=14;fontColor=#333333;" parent="1" vertex="1">
          <mxGeometry x="220" y="60" width="40" height="40" as="geometry" />
        </mxCell>
        <mxCell id="AQBsLTuEEX6UYwU5JBV7-1" value="head" style="text;html=1;align=center;verticalAlign=middle;whiteSpace=wrap;rounded=0;fontSize=10;" parent="1" vertex="1">
          <mxGeometry x="40" y="100" width="220" height="20" as="geometry" />
        </mxCell>
        <mxCell id="jTd84X1G22GfpIwI3Wmg-5" value="3" style="text;html=1;align=center;verticalAlign=middle;whiteSpace=wrap;rounded=0;fillColor=#dae8fc;strokeColor=#333333;fontSize=14;fontColor=#333333;" parent="1" vertex="1">
          <mxGeometry x="300" y="60" width="40" height="20" as="geometry" />
        </mxCell>
        <mxCell id="jTd84X1G22GfpIwI3Wmg-13" value="visits" style="text;html=1;align=center;verticalAlign=middle;whiteSpace=wrap;rounded=0;fontSize=10;" parent="1" vertex="1">
          <mxGeometry x="300" y="80" width="40" height="20" as="geometry" />
        </mxCell>
        <mxCell id="ic7H4mHyY3sLbWOJ5sB0-1" value="0" style="text;html=1;align=center;verticalAlign=middle;whiteSpace=wrap;rounded=0;fontSize=10;" vertex="1" parent="1">
          <mxGeometry x="280" y="60" width="20" height="20" as="geometry" />
        </mxCell>
      </root>
    </mxGraphModel>
  </diagram>
  <diagram name="1_2" id="2vfNRtWWVS_B9o729rGP">
    <mxGraphModel dx="830" dy="492" grid="1" gridSize="10" guides="1" tooltips="1" connect="1" arrows="1" fold="1" page="1" pageScale="1" pageWidth="380" pageHeight="160" math="0" shadow="0">
      <root>
        <mxCell id="6KMWNPnQtcOAc2pXgkV1-0" />
        <mxCell id="6KMWNPnQtcOAc2pXgkV1-1" parent="6KMWNPnQtcOAc2pXgkV1-0" />
        <mxCell id="6KMWNPnQtcOAc2pXgkV1-2" style="edgeStyle=orthogonalEdgeStyle;rounded=0;orthogonalLoop=1;jettySize=auto;html=1;exitX=1;exitY=0.5;exitDx=0;exitDy=0;entryX=0;entryY=0.5;entryDx=0;entryDy=0;fillColor=#f5f5f5;strokeColor=#666666;strokeWidth=2;" edge="1" parent="6KMWNPnQtcOAc2pXgkV1-1" source="6KMWNPnQtcOAc2pXgkV1-4" target="6KMWNPnQtcOAc2pXgkV1-6">
          <mxGeometry relative="1" as="geometry" />
        </mxCell>
        <mxCell id="6KMWNPnQtcOAc2pXgkV1-3" value="&lt;font style=&quot;font-size: 10px;&quot;&gt;2 !in visits&lt;/font&gt;" style="edgeStyle=orthogonalEdgeStyle;rounded=0;orthogonalLoop=1;jettySize=auto;html=1;entryX=0.5;entryY=0;entryDx=0;entryDy=0;fillColor=#dae8fc;strokeColor=#6c8ebf;exitX=0.5;exitY=0;exitDx=0;exitDy=0;" edge="1" parent="6KMWNPnQtcOAc2pXgkV1-1" source="6KMWNPnQtcOAc2pXgkV1-6" target="6KMWNPnQtcOAc2pXgkV1-12">
          <mxGeometry relative="1" as="geometry">
            <Array as="points">
              <mxPoint x="120" y="40" />
              <mxPoint x="320" y="40" />
            </Array>
            <mxPoint x="80" y="50" as="sourcePoint" />
          </mxGeometry>
        </mxCell>
        <mxCell id="6KMWNPnQtcOAc2pXgkV1-4" value="3" style="text;html=1;align=center;verticalAlign=middle;whiteSpace=wrap;rounded=0;fillColor=#f5f5f5;strokeColor=#666666;fontSize=14;fontColor=#333333;" vertex="1" parent="6KMWNPnQtcOAc2pXgkV1-1">
          <mxGeometry x="40" y="60" width="40" height="40" as="geometry" />
        </mxCell>
        <mxCell id="6KMWNPnQtcOAc2pXgkV1-5" style="edgeStyle=orthogonalEdgeStyle;rounded=0;orthogonalLoop=1;jettySize=auto;html=1;exitX=1;exitY=0.5;exitDx=0;exitDy=0;entryX=0;entryY=0.5;entryDx=0;entryDy=0;fillColor=#f5f5f5;strokeColor=#666666;strokeWidth=2;" edge="1" parent="6KMWNPnQtcOAc2pXgkV1-1" source="6KMWNPnQtcOAc2pXgkV1-6" target="6KMWNPnQtcOAc2pXgkV1-8">
          <mxGeometry relative="1" as="geometry">
            <mxPoint x="180" y="80" as="sourcePoint" />
          </mxGeometry>
        </mxCell>
        <mxCell id="6KMWNPnQtcOAc2pXgkV1-6" value="2" style="text;html=1;align=center;verticalAlign=middle;whiteSpace=wrap;rounded=0;fillColor=#dae8fc;strokeColor=#6c8ebf;fontSize=14;fontColor=#333333;" vertex="1" parent="6KMWNPnQtcOAc2pXgkV1-1">
          <mxGeometry x="100" y="60" width="40" height="40" as="geometry" />
        </mxCell>
        <mxCell id="6KMWNPnQtcOAc2pXgkV1-7" style="edgeStyle=orthogonalEdgeStyle;rounded=0;orthogonalLoop=1;jettySize=auto;html=1;exitX=1;exitY=0.5;exitDx=0;exitDy=0;entryX=0;entryY=0.5;entryDx=0;entryDy=0;fillColor=#f5f5f5;strokeColor=#666666;strokeWidth=2;" edge="1" parent="6KMWNPnQtcOAc2pXgkV1-1" source="6KMWNPnQtcOAc2pXgkV1-8" target="6KMWNPnQtcOAc2pXgkV1-10">
          <mxGeometry relative="1" as="geometry" />
        </mxCell>
        <mxCell id="6KMWNPnQtcOAc2pXgkV1-8" value="0" style="text;html=1;align=center;verticalAlign=middle;whiteSpace=wrap;rounded=0;fillColor=#f5f5f5;strokeColor=#666666;fontSize=14;fontColor=#333333;" vertex="1" parent="6KMWNPnQtcOAc2pXgkV1-1">
          <mxGeometry x="160" y="60" width="40" height="40" as="geometry" />
        </mxCell>
        <mxCell id="6KMWNPnQtcOAc2pXgkV1-9" style="edgeStyle=orthogonalEdgeStyle;rounded=0;orthogonalLoop=1;jettySize=auto;html=1;exitX=0.5;exitY=1;exitDx=0;exitDy=0;entryX=0.5;entryY=1;entryDx=0;entryDy=0;strokeWidth=2;fillColor=#f5f5f5;strokeColor=#666666;" edge="1" parent="6KMWNPnQtcOAc2pXgkV1-1" source="6KMWNPnQtcOAc2pXgkV1-10" target="6KMWNPnQtcOAc2pXgkV1-6">
          <mxGeometry relative="1" as="geometry" />
        </mxCell>
        <mxCell id="6KMWNPnQtcOAc2pXgkV1-10" value="4" style="text;html=1;align=center;verticalAlign=middle;whiteSpace=wrap;rounded=0;fillColor=#f5f5f5;strokeColor=#666666;fontSize=14;fontColor=#333333;" vertex="1" parent="6KMWNPnQtcOAc2pXgkV1-1">
          <mxGeometry x="220" y="60" width="40" height="40" as="geometry" />
        </mxCell>
        <mxCell id="6KMWNPnQtcOAc2pXgkV1-11" value="head" style="text;html=1;align=center;verticalAlign=middle;whiteSpace=wrap;rounded=0;fontSize=10;" vertex="1" parent="6KMWNPnQtcOAc2pXgkV1-1">
          <mxGeometry x="40" y="100" width="220" height="20" as="geometry" />
        </mxCell>
        <mxCell id="6KMWNPnQtcOAc2pXgkV1-12" value="3" style="text;html=1;align=center;verticalAlign=middle;whiteSpace=wrap;rounded=0;fillColor=#f5f5f5;strokeColor=#666666;fontSize=14;fontColor=#333333;" vertex="1" parent="6KMWNPnQtcOAc2pXgkV1-1">
          <mxGeometry x="300" y="60" width="40" height="20" as="geometry" />
        </mxCell>
        <mxCell id="6KMWNPnQtcOAc2pXgkV1-13" value="visits" style="text;html=1;align=center;verticalAlign=middle;whiteSpace=wrap;rounded=0;fontSize=10;" vertex="1" parent="6KMWNPnQtcOAc2pXgkV1-1">
          <mxGeometry x="300" y="100" width="40" height="20" as="geometry" />
        </mxCell>
        <mxCell id="6KMWNPnQtcOAc2pXgkV1-14" value="0" style="text;html=1;align=center;verticalAlign=middle;whiteSpace=wrap;rounded=0;fontSize=10;" vertex="1" parent="6KMWNPnQtcOAc2pXgkV1-1">
          <mxGeometry x="280" y="60" width="20" height="20" as="geometry" />
        </mxCell>
        <mxCell id="eyHu4_z-3T7XkFrsN198-0" value="2" style="text;html=1;align=center;verticalAlign=middle;whiteSpace=wrap;rounded=0;fillColor=#dae8fc;strokeColor=#333333;fontSize=14;fontColor=#333333;" vertex="1" parent="6KMWNPnQtcOAc2pXgkV1-1">
          <mxGeometry x="300" y="80" width="40" height="20" as="geometry" />
        </mxCell>
        <mxCell id="eyHu4_z-3T7XkFrsN198-1" value="1" style="text;html=1;align=center;verticalAlign=middle;whiteSpace=wrap;rounded=0;fontSize=10;" vertex="1" parent="6KMWNPnQtcOAc2pXgkV1-1">
          <mxGeometry x="280" y="80" width="20" height="20" as="geometry" />
        </mxCell>
      </root>
    </mxGraphModel>
  </diagram>
  <diagram name="1_3" id="WF4Pe6SWYGTxTd27L3Ck">
    <mxGraphModel dx="691" dy="410" grid="1" gridSize="10" guides="1" tooltips="1" connect="1" arrows="1" fold="1" page="1" pageScale="1" pageWidth="380" pageHeight="180" math="0" shadow="0">
      <root>
        <mxCell id="rImDUOWbZbJw16uD4w3S-0" />
        <mxCell id="rImDUOWbZbJw16uD4w3S-1" parent="rImDUOWbZbJw16uD4w3S-0" />
        <mxCell id="rImDUOWbZbJw16uD4w3S-2" style="edgeStyle=orthogonalEdgeStyle;rounded=0;orthogonalLoop=1;jettySize=auto;html=1;exitX=1;exitY=0.5;exitDx=0;exitDy=0;entryX=0;entryY=0.5;entryDx=0;entryDy=0;fillColor=#f5f5f5;strokeColor=#666666;strokeWidth=2;" edge="1" parent="rImDUOWbZbJw16uD4w3S-1" source="rImDUOWbZbJw16uD4w3S-4" target="rImDUOWbZbJw16uD4w3S-6">
          <mxGeometry relative="1" as="geometry" />
        </mxCell>
        <mxCell id="rImDUOWbZbJw16uD4w3S-3" value="&lt;font style=&quot;font-size: 10px;&quot;&gt;2 !in visits&lt;/font&gt;" style="edgeStyle=orthogonalEdgeStyle;rounded=0;orthogonalLoop=1;jettySize=auto;html=1;entryX=0.5;entryY=0;entryDx=0;entryDy=0;fillColor=#dae8fc;strokeColor=#6c8ebf;exitX=0.5;exitY=0;exitDx=0;exitDy=0;" edge="1" parent="rImDUOWbZbJw16uD4w3S-1" source="rImDUOWbZbJw16uD4w3S-8" target="rImDUOWbZbJw16uD4w3S-12">
          <mxGeometry relative="1" as="geometry">
            <Array as="points">
              <mxPoint x="180" y="40" />
              <mxPoint x="320" y="40" />
            </Array>
            <mxPoint x="80" y="50" as="sourcePoint" />
          </mxGeometry>
        </mxCell>
        <mxCell id="rImDUOWbZbJw16uD4w3S-4" value="3" style="text;html=1;align=center;verticalAlign=middle;whiteSpace=wrap;rounded=0;fillColor=#f5f5f5;strokeColor=#666666;fontSize=14;fontColor=#333333;" vertex="1" parent="rImDUOWbZbJw16uD4w3S-1">
          <mxGeometry x="40" y="60" width="40" height="40" as="geometry" />
        </mxCell>
        <mxCell id="rImDUOWbZbJw16uD4w3S-5" style="edgeStyle=orthogonalEdgeStyle;rounded=0;orthogonalLoop=1;jettySize=auto;html=1;exitX=1;exitY=0.5;exitDx=0;exitDy=0;entryX=0;entryY=0.5;entryDx=0;entryDy=0;fillColor=#f5f5f5;strokeColor=#666666;strokeWidth=2;" edge="1" parent="rImDUOWbZbJw16uD4w3S-1" source="rImDUOWbZbJw16uD4w3S-6" target="rImDUOWbZbJw16uD4w3S-8">
          <mxGeometry relative="1" as="geometry">
            <mxPoint x="180" y="80" as="sourcePoint" />
          </mxGeometry>
        </mxCell>
        <mxCell id="rImDUOWbZbJw16uD4w3S-6" value="2" style="text;html=1;align=center;verticalAlign=middle;whiteSpace=wrap;rounded=0;fillColor=#f5f5f5;strokeColor=#666666;fontSize=14;fontColor=#333333;" vertex="1" parent="rImDUOWbZbJw16uD4w3S-1">
          <mxGeometry x="100" y="60" width="40" height="40" as="geometry" />
        </mxCell>
        <mxCell id="rImDUOWbZbJw16uD4w3S-7" style="edgeStyle=orthogonalEdgeStyle;rounded=0;orthogonalLoop=1;jettySize=auto;html=1;exitX=1;exitY=0.5;exitDx=0;exitDy=0;entryX=0;entryY=0.5;entryDx=0;entryDy=0;fillColor=#f5f5f5;strokeColor=#666666;strokeWidth=2;" edge="1" parent="rImDUOWbZbJw16uD4w3S-1" source="rImDUOWbZbJw16uD4w3S-8" target="rImDUOWbZbJw16uD4w3S-10">
          <mxGeometry relative="1" as="geometry" />
        </mxCell>
        <mxCell id="rImDUOWbZbJw16uD4w3S-8" value="0" style="text;html=1;align=center;verticalAlign=middle;whiteSpace=wrap;rounded=0;fillColor=#dae8fc;strokeColor=#6c8ebf;fontSize=14;fontColor=#333333;" vertex="1" parent="rImDUOWbZbJw16uD4w3S-1">
          <mxGeometry x="160" y="60" width="40" height="40" as="geometry" />
        </mxCell>
        <mxCell id="rImDUOWbZbJw16uD4w3S-9" style="edgeStyle=orthogonalEdgeStyle;rounded=0;orthogonalLoop=1;jettySize=auto;html=1;exitX=0.5;exitY=1;exitDx=0;exitDy=0;entryX=0.5;entryY=1;entryDx=0;entryDy=0;strokeWidth=2;fillColor=#f5f5f5;strokeColor=#666666;" edge="1" parent="rImDUOWbZbJw16uD4w3S-1" source="rImDUOWbZbJw16uD4w3S-10" target="rImDUOWbZbJw16uD4w3S-6">
          <mxGeometry relative="1" as="geometry" />
        </mxCell>
        <mxCell id="rImDUOWbZbJw16uD4w3S-10" value="4" style="text;html=1;align=center;verticalAlign=middle;whiteSpace=wrap;rounded=0;fillColor=#f5f5f5;strokeColor=#666666;fontSize=14;fontColor=#333333;" vertex="1" parent="rImDUOWbZbJw16uD4w3S-1">
          <mxGeometry x="220" y="60" width="40" height="40" as="geometry" />
        </mxCell>
        <mxCell id="rImDUOWbZbJw16uD4w3S-11" value="head" style="text;html=1;align=center;verticalAlign=middle;whiteSpace=wrap;rounded=0;fontSize=10;" vertex="1" parent="rImDUOWbZbJw16uD4w3S-1">
          <mxGeometry x="40" y="100" width="220" height="20" as="geometry" />
        </mxCell>
        <mxCell id="rImDUOWbZbJw16uD4w3S-12" value="3" style="text;html=1;align=center;verticalAlign=middle;whiteSpace=wrap;rounded=0;fillColor=#f5f5f5;strokeColor=#666666;fontSize=14;fontColor=#333333;" vertex="1" parent="rImDUOWbZbJw16uD4w3S-1">
          <mxGeometry x="300" y="60" width="40" height="20" as="geometry" />
        </mxCell>
        <mxCell id="rImDUOWbZbJw16uD4w3S-13" value="visits" style="text;html=1;align=center;verticalAlign=middle;whiteSpace=wrap;rounded=0;fontSize=10;" vertex="1" parent="rImDUOWbZbJw16uD4w3S-1">
          <mxGeometry x="300" y="120" width="40" height="20" as="geometry" />
        </mxCell>
        <mxCell id="rImDUOWbZbJw16uD4w3S-14" value="0" style="text;html=1;align=center;verticalAlign=middle;whiteSpace=wrap;rounded=0;fontSize=10;" vertex="1" parent="rImDUOWbZbJw16uD4w3S-1">
          <mxGeometry x="280" y="60" width="20" height="20" as="geometry" />
        </mxCell>
        <mxCell id="rImDUOWbZbJw16uD4w3S-15" value="2" style="text;html=1;align=center;verticalAlign=middle;whiteSpace=wrap;rounded=0;fillColor=#f5f5f5;strokeColor=#666666;fontSize=14;fontColor=#333333;" vertex="1" parent="rImDUOWbZbJw16uD4w3S-1">
          <mxGeometry x="300" y="80" width="40" height="20" as="geometry" />
        </mxCell>
        <mxCell id="rImDUOWbZbJw16uD4w3S-16" value="1" style="text;html=1;align=center;verticalAlign=middle;whiteSpace=wrap;rounded=0;fontSize=10;" vertex="1" parent="rImDUOWbZbJw16uD4w3S-1">
          <mxGeometry x="280" y="80" width="20" height="20" as="geometry" />
        </mxCell>
        <mxCell id="JgBAX8p8IQEvRfVtwrBQ-0" value="0" style="text;html=1;align=center;verticalAlign=middle;whiteSpace=wrap;rounded=0;fillColor=#dae8fc;strokeColor=#333333;fontSize=14;fontColor=#333333;" vertex="1" parent="rImDUOWbZbJw16uD4w3S-1">
          <mxGeometry x="300" y="100" width="40" height="20" as="geometry" />
        </mxCell>
        <mxCell id="JgBAX8p8IQEvRfVtwrBQ-1" value="2" style="text;html=1;align=center;verticalAlign=middle;whiteSpace=wrap;rounded=0;fontSize=10;" vertex="1" parent="rImDUOWbZbJw16uD4w3S-1">
          <mxGeometry x="280" y="100" width="20" height="20" as="geometry" />
        </mxCell>
      </root>
    </mxGraphModel>
  </diagram>
  <diagram name="1_4" id="gxVMyafqwZkTf2CBDNUO">
    <mxGraphModel dx="830" dy="492" grid="1" gridSize="10" guides="1" tooltips="1" connect="1" arrows="1" fold="1" page="1" pageScale="1" pageWidth="380" pageHeight="200" math="0" shadow="0">
      <root>
        <mxCell id="LMhNIbMvAdH5UkWvXfPS-0" />
        <mxCell id="LMhNIbMvAdH5UkWvXfPS-1" parent="LMhNIbMvAdH5UkWvXfPS-0" />
        <mxCell id="LMhNIbMvAdH5UkWvXfPS-2" style="edgeStyle=orthogonalEdgeStyle;rounded=0;orthogonalLoop=1;jettySize=auto;html=1;exitX=1;exitY=0.5;exitDx=0;exitDy=0;entryX=0;entryY=0.5;entryDx=0;entryDy=0;fillColor=#f5f5f5;strokeColor=#666666;strokeWidth=2;" edge="1" parent="LMhNIbMvAdH5UkWvXfPS-1" source="LMhNIbMvAdH5UkWvXfPS-4" target="LMhNIbMvAdH5UkWvXfPS-6">
          <mxGeometry relative="1" as="geometry" />
        </mxCell>
        <mxCell id="LMhNIbMvAdH5UkWvXfPS-3" value="&lt;font style=&quot;font-size: 10px;&quot;&gt;4 !in visits&lt;/font&gt;" style="edgeStyle=orthogonalEdgeStyle;rounded=0;orthogonalLoop=1;jettySize=auto;html=1;entryX=0.5;entryY=0;entryDx=0;entryDy=0;fillColor=#dae8fc;strokeColor=#6c8ebf;exitX=0.5;exitY=0;exitDx=0;exitDy=0;" edge="1" parent="LMhNIbMvAdH5UkWvXfPS-1" source="LMhNIbMvAdH5UkWvXfPS-10" target="LMhNIbMvAdH5UkWvXfPS-12">
          <mxGeometry relative="1" as="geometry">
            <Array as="points">
              <mxPoint x="240" y="40" />
              <mxPoint x="320" y="40" />
            </Array>
            <mxPoint x="80" y="50" as="sourcePoint" />
          </mxGeometry>
        </mxCell>
        <mxCell id="LMhNIbMvAdH5UkWvXfPS-4" value="3" style="text;html=1;align=center;verticalAlign=middle;whiteSpace=wrap;rounded=0;fillColor=#f5f5f5;strokeColor=#666666;fontSize=14;fontColor=#333333;" vertex="1" parent="LMhNIbMvAdH5UkWvXfPS-1">
          <mxGeometry x="40" y="60" width="40" height="40" as="geometry" />
        </mxCell>
        <mxCell id="LMhNIbMvAdH5UkWvXfPS-5" style="edgeStyle=orthogonalEdgeStyle;rounded=0;orthogonalLoop=1;jettySize=auto;html=1;exitX=1;exitY=0.5;exitDx=0;exitDy=0;entryX=0;entryY=0.5;entryDx=0;entryDy=0;fillColor=#f5f5f5;strokeColor=#666666;strokeWidth=2;" edge="1" parent="LMhNIbMvAdH5UkWvXfPS-1" source="LMhNIbMvAdH5UkWvXfPS-6" target="LMhNIbMvAdH5UkWvXfPS-8">
          <mxGeometry relative="1" as="geometry">
            <mxPoint x="180" y="80" as="sourcePoint" />
          </mxGeometry>
        </mxCell>
        <mxCell id="LMhNIbMvAdH5UkWvXfPS-6" value="2" style="text;html=1;align=center;verticalAlign=middle;whiteSpace=wrap;rounded=0;fillColor=#f5f5f5;strokeColor=#666666;fontSize=14;fontColor=#333333;" vertex="1" parent="LMhNIbMvAdH5UkWvXfPS-1">
          <mxGeometry x="100" y="60" width="40" height="40" as="geometry" />
        </mxCell>
        <mxCell id="LMhNIbMvAdH5UkWvXfPS-7" style="edgeStyle=orthogonalEdgeStyle;rounded=0;orthogonalLoop=1;jettySize=auto;html=1;exitX=1;exitY=0.5;exitDx=0;exitDy=0;entryX=0;entryY=0.5;entryDx=0;entryDy=0;fillColor=#f5f5f5;strokeColor=#666666;strokeWidth=2;" edge="1" parent="LMhNIbMvAdH5UkWvXfPS-1" source="LMhNIbMvAdH5UkWvXfPS-8" target="LMhNIbMvAdH5UkWvXfPS-10">
          <mxGeometry relative="1" as="geometry" />
        </mxCell>
        <mxCell id="LMhNIbMvAdH5UkWvXfPS-8" value="0" style="text;html=1;align=center;verticalAlign=middle;whiteSpace=wrap;rounded=0;fillColor=#f5f5f5;strokeColor=#666666;fontSize=14;fontColor=#333333;" vertex="1" parent="LMhNIbMvAdH5UkWvXfPS-1">
          <mxGeometry x="160" y="60" width="40" height="40" as="geometry" />
        </mxCell>
        <mxCell id="LMhNIbMvAdH5UkWvXfPS-9" style="edgeStyle=orthogonalEdgeStyle;rounded=0;orthogonalLoop=1;jettySize=auto;html=1;exitX=0.5;exitY=1;exitDx=0;exitDy=0;entryX=0.5;entryY=1;entryDx=0;entryDy=0;strokeWidth=2;fillColor=#f5f5f5;strokeColor=#666666;" edge="1" parent="LMhNIbMvAdH5UkWvXfPS-1" source="LMhNIbMvAdH5UkWvXfPS-10" target="LMhNIbMvAdH5UkWvXfPS-6">
          <mxGeometry relative="1" as="geometry" />
        </mxCell>
        <mxCell id="LMhNIbMvAdH5UkWvXfPS-10" value="4" style="text;html=1;align=center;verticalAlign=middle;whiteSpace=wrap;rounded=0;fillColor=#dae8fc;strokeColor=#6c8ebf;fontSize=14;fontColor=#333333;" vertex="1" parent="LMhNIbMvAdH5UkWvXfPS-1">
          <mxGeometry x="220" y="60" width="40" height="40" as="geometry" />
        </mxCell>
        <mxCell id="LMhNIbMvAdH5UkWvXfPS-11" value="head" style="text;html=1;align=center;verticalAlign=middle;whiteSpace=wrap;rounded=0;fontSize=10;" vertex="1" parent="LMhNIbMvAdH5UkWvXfPS-1">
          <mxGeometry x="40" y="100" width="220" height="20" as="geometry" />
        </mxCell>
        <mxCell id="LMhNIbMvAdH5UkWvXfPS-12" value="3" style="text;html=1;align=center;verticalAlign=middle;whiteSpace=wrap;rounded=0;fillColor=#f5f5f5;strokeColor=#666666;fontSize=14;fontColor=#333333;" vertex="1" parent="LMhNIbMvAdH5UkWvXfPS-1">
          <mxGeometry x="300" y="60" width="40" height="20" as="geometry" />
        </mxCell>
        <mxCell id="LMhNIbMvAdH5UkWvXfPS-13" value="visits" style="text;html=1;align=center;verticalAlign=middle;whiteSpace=wrap;rounded=0;fontSize=10;" vertex="1" parent="LMhNIbMvAdH5UkWvXfPS-1">
          <mxGeometry x="300" y="140" width="40" height="20" as="geometry" />
        </mxCell>
        <mxCell id="LMhNIbMvAdH5UkWvXfPS-14" value="0" style="text;html=1;align=center;verticalAlign=middle;whiteSpace=wrap;rounded=0;fontSize=10;" vertex="1" parent="LMhNIbMvAdH5UkWvXfPS-1">
          <mxGeometry x="280" y="60" width="20" height="20" as="geometry" />
        </mxCell>
        <mxCell id="LMhNIbMvAdH5UkWvXfPS-15" value="2" style="text;html=1;align=center;verticalAlign=middle;whiteSpace=wrap;rounded=0;fillColor=#f5f5f5;strokeColor=#666666;fontSize=14;fontColor=#333333;" vertex="1" parent="LMhNIbMvAdH5UkWvXfPS-1">
          <mxGeometry x="300" y="80" width="40" height="20" as="geometry" />
        </mxCell>
        <mxCell id="LMhNIbMvAdH5UkWvXfPS-16" value="1" style="text;html=1;align=center;verticalAlign=middle;whiteSpace=wrap;rounded=0;fontSize=10;" vertex="1" parent="LMhNIbMvAdH5UkWvXfPS-1">
          <mxGeometry x="280" y="80" width="20" height="20" as="geometry" />
        </mxCell>
        <mxCell id="LMhNIbMvAdH5UkWvXfPS-17" value="0" style="text;html=1;align=center;verticalAlign=middle;whiteSpace=wrap;rounded=0;fillColor=#f5f5f5;strokeColor=#666666;fontSize=14;fontColor=#333333;" vertex="1" parent="LMhNIbMvAdH5UkWvXfPS-1">
          <mxGeometry x="300" y="100" width="40" height="20" as="geometry" />
        </mxCell>
        <mxCell id="LMhNIbMvAdH5UkWvXfPS-18" value="2" style="text;html=1;align=center;verticalAlign=middle;whiteSpace=wrap;rounded=0;fontSize=10;" vertex="1" parent="LMhNIbMvAdH5UkWvXfPS-1">
          <mxGeometry x="280" y="100" width="20" height="20" as="geometry" />
        </mxCell>
        <mxCell id="NbLZ8iTwZG9H6tgfZ5OH-0" value="4" style="text;html=1;align=center;verticalAlign=middle;whiteSpace=wrap;rounded=0;fillColor=#dae8fc;strokeColor=#333333;fontSize=14;fontColor=#333333;" vertex="1" parent="LMhNIbMvAdH5UkWvXfPS-1">
          <mxGeometry x="300" y="120" width="40" height="20" as="geometry" />
        </mxCell>
        <mxCell id="ppxZySbRGmIVl3GfUnsc-0" value="3" style="text;html=1;align=center;verticalAlign=middle;whiteSpace=wrap;rounded=0;fontSize=10;" vertex="1" parent="LMhNIbMvAdH5UkWvXfPS-1">
          <mxGeometry x="280" y="120" width="20" height="20" as="geometry" />
        </mxCell>
      </root>
    </mxGraphModel>
  </diagram>
  <diagram name="1_5" id="4RPQ4DoegLeauWhuDyYS">
    <mxGraphModel dx="830" dy="492" grid="1" gridSize="10" guides="1" tooltips="1" connect="1" arrows="1" fold="1" page="1" pageScale="1" pageWidth="380" pageHeight="200" math="0" shadow="0">
      <root>
        <mxCell id="88hVZVe17vvgVWS52oCn-0" />
        <mxCell id="88hVZVe17vvgVWS52oCn-1" parent="88hVZVe17vvgVWS52oCn-0" />
        <mxCell id="88hVZVe17vvgVWS52oCn-2" style="edgeStyle=orthogonalEdgeStyle;rounded=0;orthogonalLoop=1;jettySize=auto;html=1;exitX=1;exitY=0.5;exitDx=0;exitDy=0;entryX=0;entryY=0.5;entryDx=0;entryDy=0;fillColor=#f5f5f5;strokeColor=#666666;strokeWidth=2;" edge="1" parent="88hVZVe17vvgVWS52oCn-1" source="88hVZVe17vvgVWS52oCn-4" target="88hVZVe17vvgVWS52oCn-6">
          <mxGeometry relative="1" as="geometry" />
        </mxCell>
        <mxCell id="88hVZVe17vvgVWS52oCn-3" value="&lt;font style=&quot;font-size: 10px;&quot;&gt;2 in visits&lt;/font&gt;" style="edgeStyle=orthogonalEdgeStyle;rounded=0;orthogonalLoop=1;jettySize=auto;html=1;entryX=0.5;entryY=0;entryDx=0;entryDy=0;fillColor=#dae8fc;strokeColor=#6c8ebf;exitX=0.5;exitY=0;exitDx=0;exitDy=0;" edge="1" parent="88hVZVe17vvgVWS52oCn-1" source="88hVZVe17vvgVWS52oCn-6" target="88hVZVe17vvgVWS52oCn-12">
          <mxGeometry relative="1" as="geometry">
            <Array as="points">
              <mxPoint x="120" y="40" />
              <mxPoint x="320" y="40" />
            </Array>
            <mxPoint x="80" y="50" as="sourcePoint" />
          </mxGeometry>
        </mxCell>
        <mxCell id="88hVZVe17vvgVWS52oCn-4" value="3" style="text;html=1;align=center;verticalAlign=middle;whiteSpace=wrap;rounded=0;fillColor=#f5f5f5;strokeColor=#666666;fontSize=14;fontColor=#333333;" vertex="1" parent="88hVZVe17vvgVWS52oCn-1">
          <mxGeometry x="40" y="60" width="40" height="40" as="geometry" />
        </mxCell>
        <mxCell id="88hVZVe17vvgVWS52oCn-5" style="edgeStyle=orthogonalEdgeStyle;rounded=0;orthogonalLoop=1;jettySize=auto;html=1;exitX=1;exitY=0.5;exitDx=0;exitDy=0;entryX=0;entryY=0.5;entryDx=0;entryDy=0;fillColor=#f5f5f5;strokeColor=#666666;strokeWidth=2;" edge="1" parent="88hVZVe17vvgVWS52oCn-1" source="88hVZVe17vvgVWS52oCn-6" target="88hVZVe17vvgVWS52oCn-8">
          <mxGeometry relative="1" as="geometry">
            <mxPoint x="180" y="80" as="sourcePoint" />
          </mxGeometry>
        </mxCell>
        <mxCell id="88hVZVe17vvgVWS52oCn-6" value="2" style="text;html=1;align=center;verticalAlign=middle;whiteSpace=wrap;rounded=0;fillColor=#dae8fc;strokeColor=#6c8ebf;fontSize=14;fontColor=#333333;" vertex="1" parent="88hVZVe17vvgVWS52oCn-1">
          <mxGeometry x="100" y="60" width="40" height="40" as="geometry" />
        </mxCell>
        <mxCell id="88hVZVe17vvgVWS52oCn-7" style="edgeStyle=orthogonalEdgeStyle;rounded=0;orthogonalLoop=1;jettySize=auto;html=1;exitX=1;exitY=0.5;exitDx=0;exitDy=0;entryX=0;entryY=0.5;entryDx=0;entryDy=0;fillColor=#f5f5f5;strokeColor=#666666;strokeWidth=2;" edge="1" parent="88hVZVe17vvgVWS52oCn-1" source="88hVZVe17vvgVWS52oCn-8" target="88hVZVe17vvgVWS52oCn-10">
          <mxGeometry relative="1" as="geometry" />
        </mxCell>
        <mxCell id="88hVZVe17vvgVWS52oCn-8" value="0" style="text;html=1;align=center;verticalAlign=middle;whiteSpace=wrap;rounded=0;fillColor=#f5f5f5;strokeColor=#666666;fontSize=14;fontColor=#333333;" vertex="1" parent="88hVZVe17vvgVWS52oCn-1">
          <mxGeometry x="160" y="60" width="40" height="40" as="geometry" />
        </mxCell>
        <mxCell id="88hVZVe17vvgVWS52oCn-9" style="edgeStyle=orthogonalEdgeStyle;rounded=0;orthogonalLoop=1;jettySize=auto;html=1;exitX=0.5;exitY=1;exitDx=0;exitDy=0;entryX=0.5;entryY=1;entryDx=0;entryDy=0;strokeWidth=2;fillColor=#f5f5f5;strokeColor=#666666;" edge="1" parent="88hVZVe17vvgVWS52oCn-1" source="88hVZVe17vvgVWS52oCn-10" target="88hVZVe17vvgVWS52oCn-6">
          <mxGeometry relative="1" as="geometry" />
        </mxCell>
        <mxCell id="88hVZVe17vvgVWS52oCn-10" value="4" style="text;html=1;align=center;verticalAlign=middle;whiteSpace=wrap;rounded=0;fillColor=#f5f5f5;strokeColor=#666666;fontSize=14;fontColor=#333333;" vertex="1" parent="88hVZVe17vvgVWS52oCn-1">
          <mxGeometry x="220" y="60" width="40" height="40" as="geometry" />
        </mxCell>
        <mxCell id="88hVZVe17vvgVWS52oCn-11" value="head" style="text;html=1;align=center;verticalAlign=middle;whiteSpace=wrap;rounded=0;fontSize=10;" vertex="1" parent="88hVZVe17vvgVWS52oCn-1">
          <mxGeometry x="40" y="100" width="220" height="20" as="geometry" />
        </mxCell>
        <mxCell id="88hVZVe17vvgVWS52oCn-12" value="3" style="text;html=1;align=center;verticalAlign=middle;whiteSpace=wrap;rounded=0;fillColor=#f5f5f5;strokeColor=#666666;fontSize=14;fontColor=#333333;" vertex="1" parent="88hVZVe17vvgVWS52oCn-1">
          <mxGeometry x="300" y="60" width="40" height="20" as="geometry" />
        </mxCell>
        <mxCell id="88hVZVe17vvgVWS52oCn-13" value="visits" style="text;html=1;align=center;verticalAlign=middle;whiteSpace=wrap;rounded=0;fontSize=10;" vertex="1" parent="88hVZVe17vvgVWS52oCn-1">
          <mxGeometry x="300" y="140" width="40" height="20" as="geometry" />
        </mxCell>
        <mxCell id="88hVZVe17vvgVWS52oCn-14" value="0" style="text;html=1;align=center;verticalAlign=middle;whiteSpace=wrap;rounded=0;fontSize=10;" vertex="1" parent="88hVZVe17vvgVWS52oCn-1">
          <mxGeometry x="280" y="60" width="20" height="20" as="geometry" />
        </mxCell>
        <mxCell id="88hVZVe17vvgVWS52oCn-15" value="2" style="text;html=1;align=center;verticalAlign=middle;whiteSpace=wrap;rounded=0;fillColor=#d5e8d4;strokeColor=#82b366;fontSize=14;fontColor=#333333;" vertex="1" parent="88hVZVe17vvgVWS52oCn-1">
          <mxGeometry x="300" y="80" width="40" height="20" as="geometry" />
        </mxCell>
        <mxCell id="88hVZVe17vvgVWS52oCn-16" value="1" style="text;html=1;align=center;verticalAlign=middle;whiteSpace=wrap;rounded=0;fontSize=10;" vertex="1" parent="88hVZVe17vvgVWS52oCn-1">
          <mxGeometry x="280" y="80" width="20" height="20" as="geometry" />
        </mxCell>
        <mxCell id="88hVZVe17vvgVWS52oCn-17" value="0" style="text;html=1;align=center;verticalAlign=middle;whiteSpace=wrap;rounded=0;fillColor=#f5f5f5;strokeColor=#666666;fontSize=14;fontColor=#333333;" vertex="1" parent="88hVZVe17vvgVWS52oCn-1">
          <mxGeometry x="300" y="100" width="40" height="20" as="geometry" />
        </mxCell>
        <mxCell id="88hVZVe17vvgVWS52oCn-18" value="2" style="text;html=1;align=center;verticalAlign=middle;whiteSpace=wrap;rounded=0;fontSize=10;" vertex="1" parent="88hVZVe17vvgVWS52oCn-1">
          <mxGeometry x="280" y="100" width="20" height="20" as="geometry" />
        </mxCell>
        <mxCell id="88hVZVe17vvgVWS52oCn-19" value="4" style="text;html=1;align=center;verticalAlign=middle;whiteSpace=wrap;rounded=0;fillColor=#f5f5f5;strokeColor=#666666;fontSize=14;fontColor=#333333;" vertex="1" parent="88hVZVe17vvgVWS52oCn-1">
          <mxGeometry x="300" y="120" width="40" height="20" as="geometry" />
        </mxCell>
        <mxCell id="88hVZVe17vvgVWS52oCn-20" value="3" style="text;html=1;align=center;verticalAlign=middle;whiteSpace=wrap;rounded=0;fontSize=10;" vertex="1" parent="88hVZVe17vvgVWS52oCn-1">
          <mxGeometry x="280" y="120" width="20" height="20" as="geometry" />
        </mxCell>
      </root>
    </mxGraphModel>
  </diagram>
  <diagram name="2_1" id="k5CDP1tWZRNqDNtj9lZK">
    <mxGraphModel dx="691" dy="410" grid="1" gridSize="10" guides="1" tooltips="1" connect="1" arrows="1" fold="1" page="1" pageScale="1" pageWidth="300" pageHeight="180" math="0" shadow="0">
      <root>
        <mxCell id="EJqhwBVA5qCtXivcbs_o-0" />
        <mxCell id="EJqhwBVA5qCtXivcbs_o-1" parent="EJqhwBVA5qCtXivcbs_o-0" />
        <mxCell id="EJqhwBVA5qCtXivcbs_o-2" style="edgeStyle=orthogonalEdgeStyle;rounded=0;orthogonalLoop=1;jettySize=auto;html=1;exitX=1;exitY=0.5;exitDx=0;exitDy=0;entryX=0;entryY=0.5;entryDx=0;entryDy=0;fillColor=#f5f5f5;strokeColor=#666666;strokeWidth=2;" parent="EJqhwBVA5qCtXivcbs_o-1" source="EJqhwBVA5qCtXivcbs_o-5" target="EJqhwBVA5qCtXivcbs_o-7" edge="1">
          <mxGeometry relative="1" as="geometry" />
        </mxCell>
        <mxCell id="EJqhwBVA5qCtXivcbs_o-5" value="3" style="text;html=1;align=center;verticalAlign=middle;whiteSpace=wrap;rounded=0;fillColor=#f5f5f5;strokeColor=#666666;fontSize=14;fontColor=#333333;" parent="EJqhwBVA5qCtXivcbs_o-1" vertex="1">
          <mxGeometry x="40" y="80" width="40" height="40" as="geometry" />
        </mxCell>
        <mxCell id="EJqhwBVA5qCtXivcbs_o-6" style="edgeStyle=orthogonalEdgeStyle;rounded=0;orthogonalLoop=1;jettySize=auto;html=1;exitX=1;exitY=0.5;exitDx=0;exitDy=0;entryX=0;entryY=0.5;entryDx=0;entryDy=0;fillColor=#f5f5f5;strokeColor=#666666;strokeWidth=2;" parent="EJqhwBVA5qCtXivcbs_o-1" source="EJqhwBVA5qCtXivcbs_o-7" target="EJqhwBVA5qCtXivcbs_o-9" edge="1">
          <mxGeometry relative="1" as="geometry" />
        </mxCell>
        <mxCell id="lLnJbDHR5f9PDfGHudj8-3" value="&lt;font style=&quot;font-size: 10px;&quot;&gt;slow&lt;/font&gt;" style="edgeStyle=orthogonalEdgeStyle;rounded=0;orthogonalLoop=1;jettySize=auto;html=1;exitX=0.75;exitY=0;exitDx=0;exitDy=0;entryX=0.5;entryY=0;entryDx=0;entryDy=0;fillColor=#f5f5f5;strokeColor=#666666;" parent="EJqhwBVA5qCtXivcbs_o-1" source="EJqhwBVA5qCtXivcbs_o-5" target="EJqhwBVA5qCtXivcbs_o-7" edge="1">
          <mxGeometry relative="1" as="geometry">
            <Array as="points">
              <mxPoint x="70" y="60" />
              <mxPoint x="120" y="60" />
            </Array>
          </mxGeometry>
        </mxCell>
        <mxCell id="EJqhwBVA5qCtXivcbs_o-7" value="2" style="text;html=1;align=center;verticalAlign=middle;whiteSpace=wrap;rounded=0;fillColor=#dae8fc;strokeColor=#6c8ebf;fontSize=14;fontColor=#333333;" parent="EJqhwBVA5qCtXivcbs_o-1" vertex="1">
          <mxGeometry x="100" y="80" width="40" height="40" as="geometry" />
        </mxCell>
        <mxCell id="EJqhwBVA5qCtXivcbs_o-8" style="edgeStyle=orthogonalEdgeStyle;rounded=0;orthogonalLoop=1;jettySize=auto;html=1;exitX=1;exitY=0.5;exitDx=0;exitDy=0;entryX=0;entryY=0.5;entryDx=0;entryDy=0;fillColor=#f5f5f5;strokeColor=#666666;strokeWidth=2;" parent="EJqhwBVA5qCtXivcbs_o-1" source="EJqhwBVA5qCtXivcbs_o-9" target="EJqhwBVA5qCtXivcbs_o-11" edge="1">
          <mxGeometry relative="1" as="geometry" />
        </mxCell>
        <mxCell id="Tewmw-LEH-Nl1wd_Fk6p-0" value="&lt;font style=&quot;font-size: 10px;&quot;&gt;fast&lt;/font&gt;" style="edgeStyle=orthogonalEdgeStyle;rounded=0;orthogonalLoop=1;jettySize=auto;html=1;exitX=0.25;exitY=0;exitDx=0;exitDy=0;entryX=0.5;entryY=0;entryDx=0;entryDy=0;fillColor=#f5f5f5;strokeColor=#666666;" parent="EJqhwBVA5qCtXivcbs_o-1" source="EJqhwBVA5qCtXivcbs_o-5" target="EJqhwBVA5qCtXivcbs_o-9" edge="1">
          <mxGeometry relative="1" as="geometry">
            <Array as="points">
              <mxPoint x="50" y="40" />
              <mxPoint x="180" y="40" />
            </Array>
          </mxGeometry>
        </mxCell>
        <mxCell id="EJqhwBVA5qCtXivcbs_o-9" value="0" style="text;html=1;align=center;verticalAlign=middle;whiteSpace=wrap;rounded=0;fillColor=#d5e8d4;strokeColor=#82b366;fontSize=14;fontColor=#333333;" parent="EJqhwBVA5qCtXivcbs_o-1" vertex="1">
          <mxGeometry x="160" y="80" width="40" height="40" as="geometry" />
        </mxCell>
        <mxCell id="Tewmw-LEH-Nl1wd_Fk6p-1" style="edgeStyle=orthogonalEdgeStyle;rounded=0;orthogonalLoop=1;jettySize=auto;html=1;exitX=0.5;exitY=1;exitDx=0;exitDy=0;entryX=0.5;entryY=1;entryDx=0;entryDy=0;strokeWidth=2;fillColor=#f5f5f5;strokeColor=#666666;" parent="EJqhwBVA5qCtXivcbs_o-1" source="EJqhwBVA5qCtXivcbs_o-11" target="EJqhwBVA5qCtXivcbs_o-7" edge="1">
          <mxGeometry relative="1" as="geometry" />
        </mxCell>
        <mxCell id="EJqhwBVA5qCtXivcbs_o-11" value="4" style="text;html=1;align=center;verticalAlign=middle;whiteSpace=wrap;rounded=0;fillColor=#f5f5f5;strokeColor=#666666;fontSize=14;fontColor=#333333;" parent="EJqhwBVA5qCtXivcbs_o-1" vertex="1">
          <mxGeometry x="220" y="80" width="40" height="40" as="geometry" />
        </mxCell>
        <mxCell id="EJqhwBVA5qCtXivcbs_o-12" value="head" style="text;html=1;align=center;verticalAlign=middle;whiteSpace=wrap;rounded=0;fontSize=10;" parent="EJqhwBVA5qCtXivcbs_o-1" vertex="1">
          <mxGeometry x="40" y="120" width="220" height="20" as="geometry" />
        </mxCell>
      </root>
    </mxGraphModel>
  </diagram>
  <diagram name="2_2" id="r4c_iIxN2EXTAjZJJtvv">
    <mxGraphModel dx="830" dy="492" grid="1" gridSize="10" guides="1" tooltips="1" connect="1" arrows="1" fold="1" page="1" pageScale="1" pageWidth="300" pageHeight="180" math="0" shadow="0">
      <root>
        <mxCell id="dulwAherB_ZA1toHmWgQ-0" />
        <mxCell id="dulwAherB_ZA1toHmWgQ-1" parent="dulwAherB_ZA1toHmWgQ-0" />
        <mxCell id="dulwAherB_ZA1toHmWgQ-2" style="edgeStyle=orthogonalEdgeStyle;rounded=0;orthogonalLoop=1;jettySize=auto;html=1;exitX=1;exitY=0.5;exitDx=0;exitDy=0;entryX=0;entryY=0.5;entryDx=0;entryDy=0;fillColor=#f5f5f5;strokeColor=#666666;strokeWidth=2;" edge="1" parent="dulwAherB_ZA1toHmWgQ-1" source="dulwAherB_ZA1toHmWgQ-3" target="dulwAherB_ZA1toHmWgQ-6">
          <mxGeometry relative="1" as="geometry" />
        </mxCell>
        <mxCell id="dulwAherB_ZA1toHmWgQ-3" value="3" style="text;html=1;align=center;verticalAlign=middle;whiteSpace=wrap;rounded=0;fillColor=#f5f5f5;strokeColor=#666666;fontSize=14;fontColor=#333333;" vertex="1" parent="dulwAherB_ZA1toHmWgQ-1">
          <mxGeometry x="40" y="80" width="40" height="40" as="geometry" />
        </mxCell>
        <mxCell id="dulwAherB_ZA1toHmWgQ-4" style="edgeStyle=orthogonalEdgeStyle;rounded=0;orthogonalLoop=1;jettySize=auto;html=1;exitX=1;exitY=0.5;exitDx=0;exitDy=0;entryX=0;entryY=0.5;entryDx=0;entryDy=0;fillColor=#f5f5f5;strokeColor=#666666;strokeWidth=2;" edge="1" parent="dulwAherB_ZA1toHmWgQ-1" source="dulwAherB_ZA1toHmWgQ-6" target="dulwAherB_ZA1toHmWgQ-9">
          <mxGeometry relative="1" as="geometry" />
        </mxCell>
        <mxCell id="dulwAherB_ZA1toHmWgQ-5" value="&lt;font style=&quot;font-size: 10px;&quot;&gt;slow&lt;/font&gt;" style="edgeStyle=orthogonalEdgeStyle;rounded=0;orthogonalLoop=1;jettySize=auto;html=1;exitX=0.75;exitY=0;exitDx=0;exitDy=0;entryX=0.25;entryY=0;entryDx=0;entryDy=0;fillColor=#f5f5f5;strokeColor=#666666;" edge="1" parent="dulwAherB_ZA1toHmWgQ-1" source="dulwAherB_ZA1toHmWgQ-6" target="dulwAherB_ZA1toHmWgQ-9">
          <mxGeometry relative="1" as="geometry">
            <Array as="points">
              <mxPoint x="130" y="60" />
              <mxPoint x="170" y="60" />
            </Array>
          </mxGeometry>
        </mxCell>
        <mxCell id="dulwAherB_ZA1toHmWgQ-6" value="2" style="text;html=1;align=center;verticalAlign=middle;whiteSpace=wrap;rounded=0;fillColor=#d5e8d4;strokeColor=#82b366;fontSize=14;fontColor=#333333;" vertex="1" parent="dulwAherB_ZA1toHmWgQ-1">
          <mxGeometry x="100" y="80" width="40" height="40" as="geometry" />
        </mxCell>
        <mxCell id="dulwAherB_ZA1toHmWgQ-7" style="edgeStyle=orthogonalEdgeStyle;rounded=0;orthogonalLoop=1;jettySize=auto;html=1;exitX=1;exitY=0.5;exitDx=0;exitDy=0;entryX=0;entryY=0.5;entryDx=0;entryDy=0;fillColor=#f5f5f5;strokeColor=#666666;strokeWidth=2;" edge="1" parent="dulwAherB_ZA1toHmWgQ-1" source="dulwAherB_ZA1toHmWgQ-9" target="dulwAherB_ZA1toHmWgQ-11">
          <mxGeometry relative="1" as="geometry" />
        </mxCell>
        <mxCell id="dulwAherB_ZA1toHmWgQ-8" value="&lt;font style=&quot;font-size: 10px;&quot;&gt;fast&lt;/font&gt;" style="edgeStyle=orthogonalEdgeStyle;rounded=0;orthogonalLoop=1;jettySize=auto;html=1;exitX=0.75;exitY=0;exitDx=0;exitDy=0;fillColor=#f5f5f5;strokeColor=#666666;entryX=0.25;entryY=0;entryDx=0;entryDy=0;" edge="1" parent="dulwAherB_ZA1toHmWgQ-1" source="dulwAherB_ZA1toHmWgQ-9" target="dulwAherB_ZA1toHmWgQ-6">
          <mxGeometry relative="1" as="geometry">
            <Array as="points">
              <mxPoint x="190" y="40" />
              <mxPoint x="110" y="40" />
            </Array>
            <mxPoint x="70" y="70" as="targetPoint" />
          </mxGeometry>
        </mxCell>
        <mxCell id="dulwAherB_ZA1toHmWgQ-9" value="0" style="text;html=1;align=center;verticalAlign=middle;whiteSpace=wrap;rounded=0;fillColor=#dae8fc;strokeColor=#6c8ebf;fontSize=14;fontColor=#333333;" vertex="1" parent="dulwAherB_ZA1toHmWgQ-1">
          <mxGeometry x="160" y="80" width="40" height="40" as="geometry" />
        </mxCell>
        <mxCell id="dulwAherB_ZA1toHmWgQ-10" style="edgeStyle=orthogonalEdgeStyle;rounded=0;orthogonalLoop=1;jettySize=auto;html=1;exitX=0.5;exitY=1;exitDx=0;exitDy=0;entryX=0.5;entryY=1;entryDx=0;entryDy=0;strokeWidth=2;fillColor=#f5f5f5;strokeColor=#666666;" edge="1" parent="dulwAherB_ZA1toHmWgQ-1" source="dulwAherB_ZA1toHmWgQ-11" target="dulwAherB_ZA1toHmWgQ-6">
          <mxGeometry relative="1" as="geometry" />
        </mxCell>
        <mxCell id="dulwAherB_ZA1toHmWgQ-11" value="4" style="text;html=1;align=center;verticalAlign=middle;whiteSpace=wrap;rounded=0;fillColor=#f5f5f5;strokeColor=#666666;fontSize=14;fontColor=#333333;" vertex="1" parent="dulwAherB_ZA1toHmWgQ-1">
          <mxGeometry x="220" y="80" width="40" height="40" as="geometry" />
        </mxCell>
        <mxCell id="dulwAherB_ZA1toHmWgQ-12" value="head" style="text;html=1;align=center;verticalAlign=middle;whiteSpace=wrap;rounded=0;fontSize=10;" vertex="1" parent="dulwAherB_ZA1toHmWgQ-1">
          <mxGeometry x="40" y="120" width="220" height="20" as="geometry" />
        </mxCell>
      </root>
    </mxGraphModel>
  </diagram>
  <diagram name="2_3" id="tE-w85-QKushcXfMJu4B">
    <mxGraphModel dx="691" dy="410" grid="1" gridSize="10" guides="1" tooltips="1" connect="1" arrows="1" fold="1" page="1" pageScale="1" pageWidth="300" pageHeight="180" math="0" shadow="0">
      <root>
        <mxCell id="lhNhdH_Mlkpx9PVV2RtX-0" />
        <mxCell id="lhNhdH_Mlkpx9PVV2RtX-1" parent="lhNhdH_Mlkpx9PVV2RtX-0" />
        <mxCell id="lhNhdH_Mlkpx9PVV2RtX-2" style="edgeStyle=orthogonalEdgeStyle;rounded=0;orthogonalLoop=1;jettySize=auto;html=1;exitX=1;exitY=0.5;exitDx=0;exitDy=0;entryX=0;entryY=0.5;entryDx=0;entryDy=0;fillColor=#f5f5f5;strokeColor=#666666;strokeWidth=2;" edge="1" parent="lhNhdH_Mlkpx9PVV2RtX-1" source="lhNhdH_Mlkpx9PVV2RtX-3" target="lhNhdH_Mlkpx9PVV2RtX-6">
          <mxGeometry relative="1" as="geometry" />
        </mxCell>
        <mxCell id="lhNhdH_Mlkpx9PVV2RtX-3" value="3" style="text;html=1;align=center;verticalAlign=middle;whiteSpace=wrap;rounded=0;fillColor=#f5f5f5;strokeColor=#666666;fontSize=14;fontColor=#333333;" vertex="1" parent="lhNhdH_Mlkpx9PVV2RtX-1">
          <mxGeometry x="40" y="80" width="40" height="40" as="geometry" />
        </mxCell>
        <mxCell id="lhNhdH_Mlkpx9PVV2RtX-4" style="edgeStyle=orthogonalEdgeStyle;rounded=0;orthogonalLoop=1;jettySize=auto;html=1;exitX=1;exitY=0.5;exitDx=0;exitDy=0;entryX=0;entryY=0.5;entryDx=0;entryDy=0;fillColor=#f5f5f5;strokeColor=#666666;strokeWidth=2;" edge="1" parent="lhNhdH_Mlkpx9PVV2RtX-1" source="lhNhdH_Mlkpx9PVV2RtX-6" target="lhNhdH_Mlkpx9PVV2RtX-9">
          <mxGeometry relative="1" as="geometry" />
        </mxCell>
        <mxCell id="lhNhdH_Mlkpx9PVV2RtX-5" value="&lt;font style=&quot;font-size: 10px;&quot;&gt;slow&lt;/font&gt;" style="edgeStyle=orthogonalEdgeStyle;rounded=0;orthogonalLoop=1;jettySize=auto;html=1;exitX=0.5;exitY=0;exitDx=0;exitDy=0;entryX=0.25;entryY=0;entryDx=0;entryDy=0;fillColor=#f5f5f5;strokeColor=#666666;" edge="1" parent="lhNhdH_Mlkpx9PVV2RtX-1" source="lhNhdH_Mlkpx9PVV2RtX-9" target="lhNhdH_Mlkpx9PVV2RtX-11">
          <mxGeometry relative="1" as="geometry">
            <Array as="points">
              <mxPoint x="180" y="60" />
              <mxPoint x="230" y="60" />
            </Array>
          </mxGeometry>
        </mxCell>
        <mxCell id="lhNhdH_Mlkpx9PVV2RtX-6" value="2" style="text;html=1;align=center;verticalAlign=middle;whiteSpace=wrap;rounded=0;fillColor=#f5f5f5;strokeColor=#666666;fontSize=14;fontColor=#333333;" vertex="1" parent="lhNhdH_Mlkpx9PVV2RtX-1">
          <mxGeometry x="100" y="80" width="40" height="40" as="geometry" />
        </mxCell>
        <mxCell id="lhNhdH_Mlkpx9PVV2RtX-7" style="edgeStyle=orthogonalEdgeStyle;rounded=0;orthogonalLoop=1;jettySize=auto;html=1;exitX=1;exitY=0.5;exitDx=0;exitDy=0;entryX=0;entryY=0.5;entryDx=0;entryDy=0;fillColor=#f5f5f5;strokeColor=#666666;strokeWidth=2;" edge="1" parent="lhNhdH_Mlkpx9PVV2RtX-1" source="lhNhdH_Mlkpx9PVV2RtX-9" target="lhNhdH_Mlkpx9PVV2RtX-11">
          <mxGeometry relative="1" as="geometry" />
        </mxCell>
        <mxCell id="lhNhdH_Mlkpx9PVV2RtX-8" value="&lt;font style=&quot;font-size: 10px;&quot;&gt;fast&lt;/font&gt;" style="edgeStyle=orthogonalEdgeStyle;rounded=0;orthogonalLoop=1;jettySize=auto;html=1;exitX=0.5;exitY=0;exitDx=0;exitDy=0;fillColor=#f5f5f5;strokeColor=#666666;entryX=0.75;entryY=0;entryDx=0;entryDy=0;" edge="1" parent="lhNhdH_Mlkpx9PVV2RtX-1" source="lhNhdH_Mlkpx9PVV2RtX-6" target="lhNhdH_Mlkpx9PVV2RtX-11">
          <mxGeometry relative="1" as="geometry">
            <Array as="points">
              <mxPoint x="120" y="40" />
              <mxPoint x="250" y="40" />
            </Array>
            <mxPoint x="70" y="70" as="targetPoint" />
          </mxGeometry>
        </mxCell>
        <mxCell id="lhNhdH_Mlkpx9PVV2RtX-9" value="0" style="text;html=1;align=center;verticalAlign=middle;whiteSpace=wrap;rounded=0;fillColor=#f5f5f5;strokeColor=#666666;fontSize=14;fontColor=#333333;" vertex="1" parent="lhNhdH_Mlkpx9PVV2RtX-1">
          <mxGeometry x="160" y="80" width="40" height="40" as="geometry" />
        </mxCell>
        <mxCell id="lhNhdH_Mlkpx9PVV2RtX-10" style="edgeStyle=orthogonalEdgeStyle;rounded=0;orthogonalLoop=1;jettySize=auto;html=1;exitX=0.5;exitY=1;exitDx=0;exitDy=0;entryX=0.5;entryY=1;entryDx=0;entryDy=0;strokeWidth=2;fillColor=#f5f5f5;strokeColor=#666666;" edge="1" parent="lhNhdH_Mlkpx9PVV2RtX-1" source="lhNhdH_Mlkpx9PVV2RtX-11" target="lhNhdH_Mlkpx9PVV2RtX-6">
          <mxGeometry relative="1" as="geometry" />
        </mxCell>
        <mxCell id="lhNhdH_Mlkpx9PVV2RtX-11" value="4" style="text;html=1;align=center;verticalAlign=middle;whiteSpace=wrap;rounded=0;fillColor=#ffe6cc;strokeColor=#d79b00;fontSize=14;fontColor=#333333;" vertex="1" parent="lhNhdH_Mlkpx9PVV2RtX-1">
          <mxGeometry x="220" y="80" width="40" height="40" as="geometry" />
        </mxCell>
        <mxCell id="lhNhdH_Mlkpx9PVV2RtX-12" value="head" style="text;html=1;align=center;verticalAlign=middle;whiteSpace=wrap;rounded=0;fontSize=10;" vertex="1" parent="lhNhdH_Mlkpx9PVV2RtX-1">
          <mxGeometry x="40" y="120" width="220" height="20" as="geometry" />
        </mxCell>
      </root>
    </mxGraphModel>
  </diagram>
  <diagram name="2_4" id="Ssh6nVrqx8yQ5l2woeKU">
    <mxGraphModel dx="691" dy="410" grid="1" gridSize="10" guides="1" tooltips="1" connect="1" arrows="1" fold="1" page="1" pageScale="1" pageWidth="300" pageHeight="180" math="0" shadow="0">
      <root>
        <mxCell id="MTdZCYqsZRRv3XMK5Nuu-0" />
        <mxCell id="MTdZCYqsZRRv3XMK5Nuu-1" parent="MTdZCYqsZRRv3XMK5Nuu-0" />
        <mxCell id="MTdZCYqsZRRv3XMK5Nuu-2" style="edgeStyle=orthogonalEdgeStyle;rounded=0;orthogonalLoop=1;jettySize=auto;html=1;exitX=1;exitY=0.5;exitDx=0;exitDy=0;entryX=0;entryY=0.5;entryDx=0;entryDy=0;fillColor=#f5f5f5;strokeColor=#666666;strokeWidth=2;" edge="1" parent="MTdZCYqsZRRv3XMK5Nuu-1" source="MTdZCYqsZRRv3XMK5Nuu-3" target="MTdZCYqsZRRv3XMK5Nuu-6">
          <mxGeometry relative="1" as="geometry" />
        </mxCell>
        <mxCell id="MTdZCYqsZRRv3XMK5Nuu-3" value="3" style="text;html=1;align=center;verticalAlign=middle;whiteSpace=wrap;rounded=0;fillColor=#dae8fc;strokeColor=#6c8ebf;fontSize=14;fontColor=#333333;" vertex="1" parent="MTdZCYqsZRRv3XMK5Nuu-1">
          <mxGeometry x="40" y="80" width="40" height="40" as="geometry" />
        </mxCell>
        <mxCell id="MTdZCYqsZRRv3XMK5Nuu-4" style="edgeStyle=orthogonalEdgeStyle;rounded=0;orthogonalLoop=1;jettySize=auto;html=1;exitX=1;exitY=0.5;exitDx=0;exitDy=0;entryX=0;entryY=0.5;entryDx=0;entryDy=0;fillColor=#f5f5f5;strokeColor=#666666;strokeWidth=2;" edge="1" parent="MTdZCYqsZRRv3XMK5Nuu-1" source="MTdZCYqsZRRv3XMK5Nuu-6" target="MTdZCYqsZRRv3XMK5Nuu-9">
          <mxGeometry relative="1" as="geometry" />
        </mxCell>
        <mxCell id="MTdZCYqsZRRv3XMK5Nuu-5" value="&lt;font style=&quot;font-size: 10px;&quot;&gt;left&lt;/font&gt;" style="edgeStyle=orthogonalEdgeStyle;rounded=0;orthogonalLoop=1;jettySize=auto;html=1;entryX=0.5;entryY=0;entryDx=0;entryDy=0;fillColor=#f5f5f5;strokeColor=#666666;" edge="1" parent="MTdZCYqsZRRv3XMK5Nuu-1" target="MTdZCYqsZRRv3XMK5Nuu-3">
          <mxGeometry relative="1" as="geometry">
            <Array as="points">
              <mxPoint x="60" y="60" />
              <mxPoint x="60" y="60" />
            </Array>
            <mxPoint x="60" y="40" as="sourcePoint" />
          </mxGeometry>
        </mxCell>
        <mxCell id="MTdZCYqsZRRv3XMK5Nuu-6" value="2" style="text;html=1;align=center;verticalAlign=middle;whiteSpace=wrap;rounded=0;fillColor=#f5f5f5;strokeColor=#666666;fontSize=14;fontColor=#333333;" vertex="1" parent="MTdZCYqsZRRv3XMK5Nuu-1">
          <mxGeometry x="100" y="80" width="40" height="40" as="geometry" />
        </mxCell>
        <mxCell id="MTdZCYqsZRRv3XMK5Nuu-7" style="edgeStyle=orthogonalEdgeStyle;rounded=0;orthogonalLoop=1;jettySize=auto;html=1;exitX=1;exitY=0.5;exitDx=0;exitDy=0;entryX=0;entryY=0.5;entryDx=0;entryDy=0;fillColor=#f5f5f5;strokeColor=#666666;strokeWidth=2;" edge="1" parent="MTdZCYqsZRRv3XMK5Nuu-1" source="MTdZCYqsZRRv3XMK5Nuu-9" target="MTdZCYqsZRRv3XMK5Nuu-11">
          <mxGeometry relative="1" as="geometry" />
        </mxCell>
        <mxCell id="MTdZCYqsZRRv3XMK5Nuu-8" value="&lt;font style=&quot;font-size: 10px;&quot;&gt;right&lt;/font&gt;" style="edgeStyle=orthogonalEdgeStyle;rounded=0;orthogonalLoop=1;jettySize=auto;html=1;fillColor=#f5f5f5;strokeColor=#666666;entryX=0.5;entryY=0;entryDx=0;entryDy=0;" edge="1" parent="MTdZCYqsZRRv3XMK5Nuu-1" target="MTdZCYqsZRRv3XMK5Nuu-11">
          <mxGeometry relative="1" as="geometry">
            <Array as="points">
              <mxPoint x="240" y="60" />
              <mxPoint x="240" y="60" />
            </Array>
            <mxPoint x="240" y="40" as="sourcePoint" />
            <mxPoint x="70" y="70" as="targetPoint" />
          </mxGeometry>
        </mxCell>
        <mxCell id="MTdZCYqsZRRv3XMK5Nuu-9" value="0" style="text;html=1;align=center;verticalAlign=middle;whiteSpace=wrap;rounded=0;fillColor=#f5f5f5;strokeColor=#666666;fontSize=14;fontColor=#333333;" vertex="1" parent="MTdZCYqsZRRv3XMK5Nuu-1">
          <mxGeometry x="160" y="80" width="40" height="40" as="geometry" />
        </mxCell>
        <mxCell id="MTdZCYqsZRRv3XMK5Nuu-10" style="edgeStyle=orthogonalEdgeStyle;rounded=0;orthogonalLoop=1;jettySize=auto;html=1;exitX=0.5;exitY=1;exitDx=0;exitDy=0;entryX=0.5;entryY=1;entryDx=0;entryDy=0;strokeWidth=2;fillColor=#f5f5f5;strokeColor=#666666;" edge="1" parent="MTdZCYqsZRRv3XMK5Nuu-1" source="MTdZCYqsZRRv3XMK5Nuu-11" target="MTdZCYqsZRRv3XMK5Nuu-6">
          <mxGeometry relative="1" as="geometry" />
        </mxCell>
        <mxCell id="MTdZCYqsZRRv3XMK5Nuu-11" value="4" style="text;html=1;align=center;verticalAlign=middle;whiteSpace=wrap;rounded=0;fillColor=#d5e8d4;strokeColor=#82b366;fontSize=14;fontColor=#333333;" vertex="1" parent="MTdZCYqsZRRv3XMK5Nuu-1">
          <mxGeometry x="220" y="80" width="40" height="40" as="geometry" />
        </mxCell>
        <mxCell id="MTdZCYqsZRRv3XMK5Nuu-12" value="head" style="text;html=1;align=center;verticalAlign=middle;whiteSpace=wrap;rounded=0;fontSize=10;" vertex="1" parent="MTdZCYqsZRRv3XMK5Nuu-1">
          <mxGeometry x="40" y="120" width="220" height="20" as="geometry" />
        </mxCell>
      </root>
    </mxGraphModel>
  </diagram>
  <diagram name="2_5" id="Mh-xvkPFaGTxcwsg15Jr">
    <mxGraphModel dx="691" dy="410" grid="1" gridSize="10" guides="1" tooltips="1" connect="1" arrows="1" fold="1" page="1" pageScale="1" pageWidth="300" pageHeight="160" math="0" shadow="0">
      <root>
        <mxCell id="Yt88jghz9Y--z-y0j_ET-0" />
        <mxCell id="Yt88jghz9Y--z-y0j_ET-1" parent="Yt88jghz9Y--z-y0j_ET-0" />
        <mxCell id="Yt88jghz9Y--z-y0j_ET-2" style="edgeStyle=orthogonalEdgeStyle;rounded=0;orthogonalLoop=1;jettySize=auto;html=1;exitX=1;exitY=0.5;exitDx=0;exitDy=0;entryX=0;entryY=0.5;entryDx=0;entryDy=0;fillColor=#f5f5f5;strokeColor=#666666;strokeWidth=2;" edge="1" parent="Yt88jghz9Y--z-y0j_ET-1" source="Yt88jghz9Y--z-y0j_ET-3" target="Yt88jghz9Y--z-y0j_ET-6">
          <mxGeometry relative="1" as="geometry" />
        </mxCell>
        <mxCell id="Yt88jghz9Y--z-y0j_ET-3" value="3" style="text;html=1;align=center;verticalAlign=middle;whiteSpace=wrap;rounded=0;fillColor=#f5f5f5;strokeColor=#666666;fontSize=14;fontColor=#333333;" vertex="1" parent="Yt88jghz9Y--z-y0j_ET-1">
          <mxGeometry x="40" y="60" width="40" height="40" as="geometry" />
        </mxCell>
        <mxCell id="Yt88jghz9Y--z-y0j_ET-4" style="edgeStyle=orthogonalEdgeStyle;rounded=0;orthogonalLoop=1;jettySize=auto;html=1;exitX=1;exitY=0.5;exitDx=0;exitDy=0;entryX=0;entryY=0.5;entryDx=0;entryDy=0;fillColor=#f5f5f5;strokeColor=#666666;strokeWidth=2;" edge="1" parent="Yt88jghz9Y--z-y0j_ET-1" source="Yt88jghz9Y--z-y0j_ET-6" target="Yt88jghz9Y--z-y0j_ET-9">
          <mxGeometry relative="1" as="geometry" />
        </mxCell>
        <mxCell id="Yt88jghz9Y--z-y0j_ET-5" value="&lt;font style=&quot;font-size: 10px;&quot;&gt;left&lt;/font&gt;" style="edgeStyle=orthogonalEdgeStyle;rounded=0;orthogonalLoop=1;jettySize=auto;html=1;entryX=0.25;entryY=0;entryDx=0;entryDy=0;fillColor=#f5f5f5;strokeColor=#666666;exitX=0.5;exitY=0;exitDx=0;exitDy=0;" edge="1" parent="Yt88jghz9Y--z-y0j_ET-1" target="Yt88jghz9Y--z-y0j_ET-6" source="Yt88jghz9Y--z-y0j_ET-3">
          <mxGeometry relative="1" as="geometry">
            <Array as="points">
              <mxPoint x="60" y="40" />
              <mxPoint x="110" y="40" />
            </Array>
            <mxPoint x="60" y="20" as="sourcePoint" />
            <mxPoint as="offset" />
          </mxGeometry>
        </mxCell>
        <mxCell id="Yt88jghz9Y--z-y0j_ET-6" value="2" style="text;html=1;align=center;verticalAlign=middle;whiteSpace=wrap;rounded=0;fillColor=#ffe6cc;strokeColor=#d79b00;fontSize=14;fontColor=#333333;" vertex="1" parent="Yt88jghz9Y--z-y0j_ET-1">
          <mxGeometry x="100" y="60" width="40" height="40" as="geometry" />
        </mxCell>
        <mxCell id="Yt88jghz9Y--z-y0j_ET-7" style="edgeStyle=orthogonalEdgeStyle;rounded=0;orthogonalLoop=1;jettySize=auto;html=1;exitX=1;exitY=0.5;exitDx=0;exitDy=0;entryX=0;entryY=0.5;entryDx=0;entryDy=0;fillColor=#f5f5f5;strokeColor=#666666;strokeWidth=2;" edge="1" parent="Yt88jghz9Y--z-y0j_ET-1" source="Yt88jghz9Y--z-y0j_ET-9" target="Yt88jghz9Y--z-y0j_ET-11">
          <mxGeometry relative="1" as="geometry" />
        </mxCell>
        <mxCell id="Yt88jghz9Y--z-y0j_ET-8" value="&lt;font style=&quot;font-size: 10px;&quot;&gt;right&lt;/font&gt;" style="edgeStyle=orthogonalEdgeStyle;rounded=0;orthogonalLoop=1;jettySize=auto;html=1;fillColor=#f5f5f5;strokeColor=#666666;entryX=0.75;entryY=0;entryDx=0;entryDy=0;exitX=0.5;exitY=0;exitDx=0;exitDy=0;" edge="1" parent="Yt88jghz9Y--z-y0j_ET-1" target="Yt88jghz9Y--z-y0j_ET-6" source="Yt88jghz9Y--z-y0j_ET-11">
          <mxGeometry relative="1" as="geometry">
            <Array as="points">
              <mxPoint x="240" y="40" />
              <mxPoint x="130" y="40" />
            </Array>
            <mxPoint x="240" y="20" as="sourcePoint" />
            <mxPoint x="70" y="50" as="targetPoint" />
          </mxGeometry>
        </mxCell>
        <mxCell id="Yt88jghz9Y--z-y0j_ET-9" value="0" style="text;html=1;align=center;verticalAlign=middle;whiteSpace=wrap;rounded=0;fillColor=#f5f5f5;strokeColor=#666666;fontSize=14;fontColor=#333333;" vertex="1" parent="Yt88jghz9Y--z-y0j_ET-1">
          <mxGeometry x="160" y="60" width="40" height="40" as="geometry" />
        </mxCell>
        <mxCell id="Yt88jghz9Y--z-y0j_ET-10" style="edgeStyle=orthogonalEdgeStyle;rounded=0;orthogonalLoop=1;jettySize=auto;html=1;exitX=0.5;exitY=1;exitDx=0;exitDy=0;entryX=0.5;entryY=1;entryDx=0;entryDy=0;strokeWidth=2;fillColor=#f5f5f5;strokeColor=#666666;" edge="1" parent="Yt88jghz9Y--z-y0j_ET-1" source="Yt88jghz9Y--z-y0j_ET-11" target="Yt88jghz9Y--z-y0j_ET-6">
          <mxGeometry relative="1" as="geometry" />
        </mxCell>
        <mxCell id="Yt88jghz9Y--z-y0j_ET-11" value="4" style="text;html=1;align=center;verticalAlign=middle;whiteSpace=wrap;rounded=0;fillColor=#f5f5f5;strokeColor=#666666;fontSize=14;fontColor=#333333;" vertex="1" parent="Yt88jghz9Y--z-y0j_ET-1">
          <mxGeometry x="220" y="60" width="40" height="40" as="geometry" />
        </mxCell>
        <mxCell id="Yt88jghz9Y--z-y0j_ET-12" value="head" style="text;html=1;align=center;verticalAlign=middle;whiteSpace=wrap;rounded=0;fontSize=10;" vertex="1" parent="Yt88jghz9Y--z-y0j_ET-1">
          <mxGeometry x="40" y="100" width="220" height="20" as="geometry" />
        </mxCell>
      </root>
    </mxGraphModel>
  </diagram>
</mxfile>
